<?xml version="1.0" encoding="UTF-8"?>
<!DOCTYPE svg PUBLIC "-//W3C//DTD SVG 1.1//EN" "http://www.w3.org/Graphics/SVG/1.1/DTD/svg11.dtd">
<!-- Creator: CorelDRAW X7 -->
<svg xmlns="http://www.w3.org/2000/svg" xml:space="preserve" width="100%" height="100%" version="1.1" style="shape-rendering:geometricPrecision; text-rendering:geometricPrecision; image-rendering:optimizeQuality; fill-rule:evenodd; clip-rule:evenodd"
viewBox="0 0 808 794"
 xmlns:xlink="http://www.w3.org/1999/xlink">
 <defs>
  <style type="text/css">
   <![CDATA[
    .str0 {stroke:black;stroke-width:50}
    .fil1 {fill:none}
    .fil0 {fill:black}
   ]]>
  </style>
 </defs>
 <g id="Слой_x0020_1">
  <metadata id="CorelCorpID_0Corel-Layer"/>
  <polygon class="fil0 str0" points="775,321 748,149 622,240 "/>
  <g>
   <path class="fil0" d="M98 181l0 0c-7,10 -5,23 5,31 9,6 23,4 30,-6l5 -7 6 -8 6 -7 6 -8 7 -6 7 -7 7 -7 7 -6 7 -6 8 -7 8 -5 7 -6 8 -5 9 -5 8 -5 8 -5 9 -4 9 -4 8 -4 10 -3 9 -4 9 -3 10 -3 9 -2 10 -3 9 -2 10 -1 10 -2 10 -1 10 -1 11 0 10 0 0 0 10 0 11 0 10 1 10 1 10 2 10 1 9 2 10 3 10 2 9 3 9 3 9 4 9 3 9 4 9 4 9 4 8 5 8 5 9 5 8 5 8 6 7 5 8 7 7 6 7 6 7 7 7 7 6 6 7 8 6 7 6 8 5 7 0 0c8,10 21,12 30,6 10,-8 12,-21 5,-31l0 0 -6 -8 -7 -9 -7 -8 -7 -8 -7 -8 -8 -8 -8 -7 -8 -8 -8 -6 -9 -7 -8 -7 -9 -6 -9 -6 -9 -6 -10 -5 -9 -6 -10 -5 -10 -4 -10 -5 -11 -4 -10 -3 -10 -4 -11 -3 -11 -3 -10 -3 -12 -2 -11 -2 -11 -1 -12 -1 -11 -1 -11 -1 -12 0 0 0 0 0 -12 0 -11 1 -12 1 -11 1 -11 1 -11 2 -11 2 -11 3 -11 3 -11 3 -10 4 -11 4 -10 3 -10 5 -10 4 -10 5 -9 6 -10 5 -9 6 -9 6 -9 6 -8 7 -9 7 -8 6 -8 8 -8 7 -8 8 -7 8 -7 8 -7 8 -7 9 -6 8zm35 25l-35 -25 35 25z"/>
   <path id="1" class="fil1 str0" d="M98 181l0 0c-7,10 -5,23 5,31 9,6 23,4 30,-6l5 -7 6 -8 6 -7 6 -8 7 -6 7 -7 7 -7 7 -6 7 -6 8 -7 8 -5 7 -6 8 -5 9 -5 8 -5 8 -5 9 -4 9 -4 8 -4 10 -3 9 -4 9 -3 10 -3 9 -2 10 -3 9 -2 10 -1 10 -2 10 -1 10 -1 11 0 10 0 0 0 10 0 11 0 10 1 10 1 10 2 10 1 9 2 10 3 10 2 9 3 9 3 9 4 9 3 9 4 9 4 9 4 8 5 8 5 9 5 8 5 8 6 7 5 8 7 7 6 7 6 7 7 7 7 6 6 7 8 6 7 6 8 5 7 0 0c8,10 21,12 30,6 10,-8 12,-21 5,-31l0 0 -6 -8 -7 -9 -7 -8 -7 -8 -7 -8 -8 -8 -8 -7 -8 -8 -8 -6 -9 -7 -8 -7 -9 -6 -9 -6 -9 -6 -10 -5 -9 -6 -10 -5 -10 -4 -10 -5 -11 -4 -10 -3 -10 -4 -11 -3 -11 -3 -10 -3 -12 -2 -11 -2 -11 -1 -12 -1 -11 -1 -11 -1 -12 0 0 0 0 0 -12 0 -11 1 -12 1 -11 1 -11 1 -11 2 -11 2 -11 3 -11 3 -11 3 -10 4 -11 4 -10 3 -10 5 -10 4 -10 5 -9 6 -10 5 -9 6 -9 6 -9 6 -8 7 -9 7 -8 6 -8 8 -8 7 -8 8 -7 8 -7 8 -7 8 -7 9 -6 8zm35 25l-35 -25"/>
  </g>
  <polygon class="fil0 str0" points="29,487 57,659 183,569 29,487 "/>
  <path class="fil0 str0" d="M702 614c7,-10 5,-23 -5,-30 -9,-7 -22,-5 -30,5l0 0 -5 7 -6 8 -6 7 -7 8 -6 6 -7 8 -7 6 -7 6 -7 7 -8 6 -7 5 -8 6 -8 5 -9 5 -8 5 -8 5 -9 4 -9 4 -9 4 -9 4 -9 3 -9 3 -9 3 -10 3 -10 2 -9 2 -10 1 -10 2 -10 1 -11 1 -10 0 -10 0 0 0 -10 0 -11 0 -10 -1 -10 -1 -10 -2 -10 -1 -9 -2 -10 -2 -9 -3 -10 -3 -9 -3 -9 -3 -10 -4 -8 -4 -9 -4 -9 -4 -8 -5 -8 -5 -9 -5 -8 -5 -7 -6 -8 -5 -8 -6 -7 -7 -7 -6 -7 -6 -7 -8 -7 -6 -6 -8 -6 -7 -6 -8 -6 -7 1 0 0 0c-7,-10 -21,-12 -30,-5 -10,7 -12,20 -5,30l0 0 6 9 7 8 7 8 7 9 7 7 8 8 8 8 8 7 8 7 9 7 8 6 9 6 9 6 9 6 10 6 9 5 10 5 10 4 10 5 10 4 11 3 10 4 11 3 11 3 11 3 11 2 11 2 11 1 11 1 12 2 11 0 12 0 0 0 0 0 12 0 11 0 11 -2 12 -1 11 -1 11 -2 12 -2 10 -3 11 -3 11 -3 10 -4 10 -3 11 -4 10 -5 10 -4 10 -5 9 -5 10 -6 9 -6 9 -6 9 -6 8 -6 9 -7 8 -7 8 -7 8 -8 8 -8 7 -7 7 -9 7 -8 7 -8 6 -9 0 0 0 0 0 0z"/>
 </g>
</svg>
