<?xml version="1.0" encoding="UTF-8"?>
<!DOCTYPE svg PUBLIC "-//W3C//DTD SVG 1.1//EN" "http://www.w3.org/Graphics/SVG/1.1/DTD/svg11.dtd">
<!-- Creator: CorelDRAW X7 -->
<svg xmlns="http://www.w3.org/2000/svg" xml:space="preserve" width="100%" height="100%" version="1.1" style="shape-rendering:geometricPrecision; text-rendering:geometricPrecision; image-rendering:optimizeQuality; fill-rule:evenodd; clip-rule:evenodd"
viewBox="0 0 634 634"
 xmlns:xlink="http://www.w3.org/1999/xlink">
 <defs>
  <style type="text/css">
   <![CDATA[
    .str0 {stroke:black;stroke-width:50}
    .fil0 {fill:none}
    .fil1 {fill:black}
   ]]>
  </style>
 </defs>
 <g id="Слой_x0020_1">
  <metadata id="CorelCorpID_0Corel-Layer"/>
  <circle class="fil0" cx="317" cy="317" r="317"/>
  <polygon class="fil1 str0" points="245,160 238,152 317,73 325,80 397,152 389,160 317,88 "/>
  <polygon class="fil1 str0" points="160,389 152,397 73,317 80,310 152,238 160,245 88,317 "/>
  <polygon class="fil1 str0" points="389,475 397,482 317,561 310,554 238,482 245,475 317,546 "/>
  <polygon class="fil1 str0" points="475,245 482,238 561,317 554,325 482,397 475,389 546,317 "/>
 </g>
</svg>
