<svg xmlns="http://www.w3.org/2000/svg" viewBox="0 0 100 100">
	<path fill="#fff" d="M86.3 14.3v32.078L45.517 87.08 13.442 55l40.702-40.7H86.3m0-8.572H54.143c-2.273 0-4.453.903-6.06 2.51L7.38 48.94c-3.346 3.347-3.346 8.774 0 12.122l32.077 32.08c1.674 1.674 3.868 2.51 6.06 2.51 2.192 0 4.383-.834 6.056-2.504l40.78-40.703c1.612-1.608 2.517-3.79 2.517-6.067V14.3c0-4.734-3.837-8.572-8.57-8.572z"/>
	<path fill="#fff" d="M69.028 25.005c3.605 0 6.53 2.922 6.53 6.525 0 3.604-2.924 6.527-6.53 6.527-3.603 0-6.525-2.923-6.525-6.527 0-3.603 2.922-6.525 6.525-6.525m0-4.286c-5.96 0-10.81 4.85-10.81 10.81 0 5.96 4.85 10.81 10.81 10.81 5.963 0 10.814-4.85 10.814-10.813 0-5.96-4.85-10.81-10.814-10.81zM32.586 60.885c-.548 0-1.097-.21-1.515-.628-.833-.838-.833-2.194 0-3.03l17.465-17.46c.837-.84 2.193-.84 3.03 0 .836.835.836 2.19 0 3.03l-17.46 17.46c-.42.42-.968.627-1.516.627zm9.23 9.228c-.55 0-1.098-.21-1.516-.628-.837-.837-.837-2.193 0-3.03l17.46-17.46c.838-.837 2.194-.837 3.03 0 .838.837.838 2.193 0 3.03l-17.46 17.46c-.418.42-.966.628-1.515.628z"/>
</svg>