<svg xmlns="http://www.w3.org/2000/svg" viewBox="0 0 100 100">
	<g fill="#fff">
		<path d="M98 46h-5.694C90.406 25.752 74.246 9.594 54 7.694V2h-8v5.694C25.752 9.594 9.594 25.752 7.694 46H2v8h5.694C9.594 74.247 25.752 90.406 46 92.306V98h8v-5.694c20.247-1.9 36.406-18.06 38.306-38.306H98v-8zM54 84.26V72h-8v12.26C30.168 82.425 17.577 69.83 15.74 54H28v-8H15.74C17.576 30.168 30.167 17.577 46 15.74V28h8V15.74C69.83 17.576 82.424 30.167 84.26 46H72v8h12.26C82.425 69.83 69.83 82.424 54 84.26z"/>
		<circle cx="50" cy="50" r="7"/>
	</g>
</svg>