<svg xmlns="http://www.w3.org/2000/svg" viewBox="0 0 100 100">
	<path fill="#fff" d="M87.7 93.35q1.15 1.15 2.8 1.15t2.85-1.15q1.15-1.2 1.15-2.85 0-1.65-1.15-2.8l-25.4-25.4Q73 56.05 74.7 48.35v-.05q.8-3.75.8-7.8 0-14.5-10.25-24.75T40.5 5.5Q26 5.5 15.75 15.7l-.05.05Q5.5 26 5.5 40.5t10.25 24.75Q26 75.5 40.5 75.5q12.5 0 21.8-7.55l25.4 25.4M40.5 15.5q10.4 0 17.7 7.3 7.3 7.3 7.3 17.7 0 2.95-.6 5.7h.05q-1.55 6.75-6.75 11.95l-.05.05q-7.3 7.3-17.65 7.3-10.4 0-17.7-7.3-7.3-7.3-7.3-17.7 0-10.35 7.3-17.7 7.35-7.3 17.7-7.3z"/>
</svg>